# xmcd CD database file
#
# Track frame offsets:
#	182
#	15712
#	27667
#	36512
#	48397
#	60642
#	78190
#	90210
#	98085
#	112277
#	118692
#	135345
#	143845
#	157527
#
# Disc length: 2320 seconds
#
# Revision: 0
# Processed by: cddbd v1.5.2PL0 Copyright (c) Steve Scherf et al.
# Submitted via: CDex 1.51
#
DISCID=ad090e0e
DTITLE=M-ak - Gor
DYEAR=1990
DGENRE=Euskal Herriko Rock Gogorra
TTITLE0=Ikusi Makusi
TTITLE1=Adiskidea
TTITLE2=Sinestezina
TTITLE3=Herrimina
TTITLE4=Paul McCartney
TTITLE5=Hamarkada Miresgarria
TTITLE6=To
TTITLE7=Gor
TTITLE8=Atzera Etxera
TTITLE9=Trans-Jitu Express
TTITLE10=Lapurren Artean
TTITLE11=Bingo
TTITLE12=Hanburgesak
TTITLE13=Ehun Ginen
EXTD=YEAR: 1990
EXTT0=
EXTT1=
EXTT2=
EXTT3=
EXTT4=
EXTT5=
EXTT6=
EXTT7=
EXTT8=
EXTT9=
EXTT10=
EXTT11=
EXTT12=
EXTT13=
PLAYORDER=
